<?xml version="1.0" encoding="UTF-8"?>
<svg id="Layer_1" xmlns="http://www.w3.org/2000/svg" version="1.1" viewBox="0 0 515.5 209.6">
  <!-- Generator: Adobe Illustrator 29.4.0, SVG Export Plug-In . SVG Version: 2.1.0 Build 152)  -->
  <defs>
    <style>
      .st0 {
        stroke-miterlimit: 10;
      }

      .st0, .st1 {
        stroke: #000;
        stroke-width: .2px;
      }

      .st2 {
        isolation: isolate;
      }
    </style>
  </defs>
  <g class="st2">
    <g class="st2">
      <g class="st2">
        <g class="st2">
          <g class="st2">
            <g class="st2">
              <path d="M267.5,177.2c1.2,0,2.4.6,3.3,1.9.9,1.3,1.4,2.9,1.4,4.7v4c0,1.9-.7,3.4-2.1,4.7-1.5,1.3-3.2,1.9-5.2,1.9h-11.7c-2,0-3.9-.3-5.5-.9-1.6-.7-2.5-1.5-2.7-2.4-.2-.9-1.1-1.3-2.6-1.4-1.4-.1-3,.3-4.9,1.1-7.6,3.5-14.6,5.3-21.1,5.3s-15.8-1.9-21.5-5.8c-6.6-4.5-9.9-10.6-9.9-18.4s3.8-15.1,11.3-19.8c6.8-4.1,16.3-6.4,28.6-6.9,2.3-.2,4.4-.2,6.4-.2,4.2,0,7.7.2,10.5.7-.1-7.2-1-11.6-2.6-13-2.8-2.2-6.7-3.4-11.8-3.6-1.1,0-4,.3-8.9.9-1.7.3-3.4.9-5.2,1.8-1.7,1-3.4,3.1-4.9,6.4-.6,2.4-2.9,3.5-6.8,3.4l-6.2-.8c-5.1-1.7-6.1-5.3-3-11.1,4.3-7.2,10.1-12,17.5-14.3,6.4-2.2,12.7-3.3,18.9-3.3s11.5,1,17,2.9c4.8,1.7,8.5,3.8,11.1,6.6,2.3,2.6,4,6,4.9,10,.5,2.4.7,6.5.7,12.1v27c0,1.9.5,3.4,1.4,4.7.9,1.3,2,1.9,3.3,1.9ZM240,170c1.1-2.1,1.7-5.4,1.9-9.8-2.8-.8-5.9-1.2-9.2-1.2s-7.5.5-11.8,1.4c-9.4,2-14.1,5.7-14.1,11.1s1.2,4.9,3.7,6.4c2.4,1.4,5.5,2.2,9.3,2.2s8.4-.9,12-2.6c3.8-1.8,6.5-4.3,8.2-7.5Z"/>
              <path d="M331.5,112.4c11.9,0,21.5,4.4,28.7,13.2,6.2,7.6,9.3,16.8,9.3,27.7s-3.1,21-9.4,29c-7.1,9.3-16.9,13.9-29.4,13.9s-15.5-2.5-21.1-7.6c-.7,1.7-2.1,3.1-4.1,4.3-1.9,1.1-3.9,1.7-6,1.7h-11.5c-2,0-3.7-.6-5.2-1.9-1.4-1.3-2.1-2.9-2.1-4.7v-4c0-1.8.5-3.4,1.6-4.7,1.1-1.3,2.4-1.9,3.9-1.9s2.8-.6,3.9-1.9c1.1-1.3,1.6-2.9,1.6-4.7v-60.7c0-1.8-.5-3.4-1.6-4.6-1.1-1.3-2.4-2-3.9-2s-2.8-.6-3.9-1.9c-1.1-1.3-1.6-2.9-1.6-4.7v-4c0-1.8.7-3.4,2.1-4.7,1.5-1.3,3.2-1.9,5.2-1.9h17.3c2,0,3.7.6,5.1,1.9,1.5,1.3,2.2,2.9,2.2,4.7v18.8c0,1.9.6,3.1,1.9,3.8,1.2.7,2.8.6,4.6-.2,3.5-1.7,7.6-2.6,12.4-2.6ZM344,171.5c3-4.6,4.5-10.4,4.5-17.3s-1.4-12.6-4.1-17.2c-3.2-5.4-7.9-8.1-14.1-8.1s-9.3,2-13,6.1c-3.8,4.2-5.7,10.4-5.7,18.8s1.1,14.1,3.4,17.5c3.7,5.5,8.6,8.2,14.7,8.2s11.1-2.7,14.4-8.1Z"/>
              <path d="M415.3,177.3c1.5,0,2.8.6,3.9,1.9,1.1,1.3,1.6,2.9,1.6,4.7v4c0,1.9-.7,3.4-2.1,4.7-1.4,1.3-3.2,1.9-5.2,1.9h-28.1c-2,0-3.7-.6-5.2-1.9-1.4-1.3-2.1-2.9-2.1-4.7v-4c0-1.8.5-3.4,1.6-4.7,1.1-1.3,2.4-1.9,3.9-1.9s2.8-.6,3.8-1.9c1.1-1.3,1.6-2.9,1.6-4.7v-60.7c0-1.8-.5-3.4-1.6-4.6-1.1-1.3-2.4-2-3.8-2s-2.8-.6-3.9-1.9c-1.1-1.3-1.6-2.9-1.6-4.7v-4c0-1.8.7-3.4,2.1-4.7,1.5-1.3,3.2-1.9,5.2-1.9h17.1c2,0,3.7.6,5.1,1.9,1.5,1.3,2.2,2.9,2.2,4.7v78c0,1.9.5,3.4,1.6,4.7,1.1,1.3,2.4,1.9,3.8,1.9Z"/>
              <path d="M470.9,112.4c13.8,0,24.4,4.8,31.7,14.3,5.9,7.6,8.9,16.7,8.9,27.2-.2,2.3-.8,3.9-1.8,5-1,1-3,1.7-5.8,1.9h-45.6c-2,0-3.5.6-4.6,1.9-1.1,1.2-1.4,2.8-.9,4.6.5,1.8,1.8,3.8,3.8,6,3.8,4.2,8.9,6.4,15.2,6.4s11.4-3.3,14.8-9.8h15.2c4.9,0,6.3,1.9,4.3,5.8-2.3,3.4-5.2,6.8-8.5,10.2-8.5,6.9-17.1,10.3-25.9,10.3-13.2,0-23.7-4-31.5-11.9-7.2-7.5-10.8-17.3-10.8-29.4s3.5-21.9,10.5-29.7c7.6-8.6,18-12.9,31-12.9ZM482.1,144.9c2,0,3.5-.6,4.6-1.9,1-1.3,1.2-2.8.7-4.6-.3-1.1-1.4-2.6-3.1-4.3-3.4-3.5-7.8-5.2-13.3-5.2s-10.1,1.8-13.6,5.3c-2.8,2.6-4.7,6.2-5.6,10.6h30.3Z"/>
            </g>
          </g>
        </g>
      </g>
    </g>
  </g>
  <g>
    <path d="M4.9,110c-2.4,45.6,29.5,84.2,72.2,92.4v-21.1c-29.8-7.6-51.8-34.6-51.8-66.7S55.3,46.9,92.4,46c38.7-.9,70.4,30.2,70.4,68.7s-22,59.1-51.8,66.6v21.1c41.2-7.9,72.4-44.2,72.4-87.7S142.8,24.8,92.9,25.5C46.1,26.1,7.4,63.3,4.9,110Z"/>
    <path class="st1" d="M131,76.4c-1.3-1.4-3-2.1-4.8-2.1H49.3c-1.9,0-3.5.7-4.9,2.1-1.3,1.4-2,3.1-2,5v4.2c0,2,.7,3.6,2,5,1.4,1.4,3,2.1,4.9,2.1h-.2c1.9,0,3.6.7,5,2.2,1.4,1.4,2,3.1,2,5v65.3c0,1.7,21.1,1.7,21.1,0v-16.6c0-2.3.9-4.2,2.6-5.7s2.9-1.6,4.5-1.6h27.2c1.9,0,3.5-.7,4.9-2.2,1.3-1.4,2-3.1,2-5.2v-5.4c0-2-.7-3.7-2-5.1-1.4-1.5-3-2.2-4.9-2.2h-27.2c-1.6,0-3.3-.5-4.5-1.6s-2.6-3.4-2.6-5.7v-11.9c0-2,.7-3.7,2-5.2,1.3-1.4,3-2.1,4.9-2.1h24c1.9,0,3.6.7,4.9,2.1,1.3,1.3,2,2.9,2,4.8s.7,3.5,2.1,4.9,3,2,4.8,2h4.2c1.9,0,3.5-.7,4.8-2.1,1.4-1.4,2.1-3.2,2.1-5.2v-19.4c0-1.9-.7-3.6-2.1-5v-.4h0Z"/>
    <rect class="st0" x="56.1" y="155.9" width="21.1" height="37.6"/>
  </g>
</svg>