<?xml version="1.0" encoding="UTF-8"?>
<svg id="Layer_1" xmlns="http://www.w3.org/2000/svg" xmlns:xlink="http://www.w3.org/1999/xlink" version="1.1" viewBox="0 0 515.5 209.6">
  <!-- Generator: Adobe Illustrator 29.3.1, SVG Export Plug-In . SVG Version: 2.1.0 Build 151)  -->
  <defs>
    <style>
      .st0 {
        font-family: TypoSlabIrregularDemo, 'TypoSlab Irregular Demo';
        font-size: 158.7px;
      }

      .st0, .st1 {
        isolation: isolate;
      }

      .st0, .st2, .st3, .st4 {
        fill: #3fef97;
      }

      .st5 {
        fill: #fff;
      }

      .st3, .st4 {
        stroke-width: .2px;
      }

      .st3, .st4, .st6 {
        stroke: #000;
      }

      .st3, .st6 {
        stroke-miterlimit: 10;
      }

      .st6 {
        stroke-width: 5px;
      }
    </style>
  </defs>
  <g class="st1">
    <g class="st1">
      <g class="st1">
        <g class="st1">
          <text class="st0" transform="translate(180.9 194.6) scale(1.1 1)"><tspan x="0" y="0">able</tspan></text>
        </g>
      </g>
    </g>
  </g>
  <g>
    <path class="st6" d="M83.6-211.5v27.8c-1.5,5.2-2.2,10.6-3.8,15.9-12.5,39-51.1,67.5-92.5,66.7v-22.6l1.6-1.3c63.4-1,95.9-78.7,50-124-55.1-54.4-146.8,3.8-120.2,76.6,2.2,6.1,12,23.9,17.5,26.7s1.8.2,2.9-1v-59.5c0-13.9,20.7-33.8,33.7-37.4s37.4-.9,48,12.3c-.2,2.2-13.7,15.6-15.9,15.8-3-.2-4.4-3-7.1-4.1-16.5-7.4-35.3,4.7-34.7,22.6H11.3v23h-47.7l-1.4,1.4v67.7c-33.2-6.6-59.8-35.5-68.6-67.4-1-3.8-1.4-7.6-2.6-11.3.6-9-.9-19,0-27.8,5.6-57.8,70.5-94.5,124.4-78.5,33.4,9.9,64.7,43.2,68.2,78.4h0Z"/>
    <path class="st6" d="M-110.1-198.4c0,19.3,5.8,37.3,15.9,52.4v-104.8c-10.1,15.2-15.9,33.2-15.9,52.4Z"/>
    <path class="st6" d="M84.7-197.4c0-19.3-5.8-37.3-15.9-52.4v104.9c10.1-15.2,15.9-33.2,15.9-52.4h0Z"/>
  </g>
  <circle class="st5" cx="346.7" cy="-260.6" r="115.6"/>
  <g>
    <path class="st2" d="M4.9,110c-2.4,45.6,29.5,84.2,72.2,92.4v-21.1c-29.8-7.6-51.8-34.6-51.8-66.7S55.3,46.9,92.4,46c38.7-.9,70.4,30.2,70.4,68.7s-22,59.1-51.8,66.6v21.1c41.2-7.9,72.4-44.2,72.4-87.7S142.8,24.8,92.9,25.5C46.1,26.1,7.4,63.3,4.9,110Z"/>
    <path class="st4" d="M131,76.4c-1.3-1.4-3-2.1-4.8-2.1H49.3c-1.9,0-3.5.7-4.9,2.1-1.3,1.4-2,3.1-2,5v4.2c0,2,.7,3.6,2,5,1.4,1.4,3,2.1,4.9,2.1h-.2c1.9,0,3.6.7,5,2.2,1.4,1.4,2,3.1,2,5v65.3c0,1.7,21.1,1.7,21.1,0v-16.6c0-2.3.9-4.2,2.6-5.7s2.9-1.6,4.5-1.6h27.2c1.9,0,3.5-.7,4.9-2.2,1.3-1.4,2-3.1,2-5.2v-5.4c0-2-.7-3.7-2-5.1-1.4-1.5-3-2.2-4.9-2.2h-27.2c-1.6,0-3.3-.5-4.5-1.6s-2.6-3.4-2.6-5.7v-11.9c0-2,.7-3.7,2-5.2,1.3-1.4,3-2.1,4.9-2.1h24c1.9,0,3.6.7,4.9,2.1,1.3,1.3,2,2.9,2,4.8s.7,3.5,2.1,4.9,3,2,4.8,2h4.2c1.9,0,3.5-.7,4.8-2.1,1.4-1.4,2.1-3.2,2.1-5.2v-19.4c0-1.9-.7-3.6-2.1-5v-.4h0Z"/>
    <rect class="st3" x="56.1" y="155.9" width="21.1" height="37.6"/>
  </g>
</svg>